<?xml version="1.0" standalone="no"?><!DOCTYPE svg PUBLIC "-//W3C//DTD SVG 1.1//EN" "http://www.w3.org/Graphics/SVG/1.1/DTD/svg11.dtd"><svg t="1597066170875" class="icon" viewBox="0 0 1024 1024" version="1.1" xmlns="http://www.w3.org/2000/svg" p-id="4085" data-darkreader-inline-fill="" xmlns:xlink="http://www.w3.org/1999/xlink" width="16" height="16"><defs><style type="text/css">[data-darkreader-inline-fill] { fill: var(--darkreader-inline-fill)  !important; }
* {  }
</style></defs><path d="M956.8 880l-416-768c-6.4-9.6-16-16-28.8-16s-22.4 6.4-28.8 16l-416 768c0 6.4-3.2 9.6-3.2 16 0 19.2 12.8 32 32 32h832c19.2 0 32-12.8 32-32 0-6.4-3.2-9.6-3.2-16zM480 384h64v256h-64v-256z m32 416c-25.6 0-48-22.4-48-48S486.4 704 512 704s48 22.4 48 48S537.6 800 512 800z" fill="#f4ea2a" p-id="4086" data-darkreader-inline-fill="" style="--darkreader-inline-fill:#b0a809;"></path></svg>